<?xml version="1.0" standalone="no"?>
<!DOCTYPE svg PUBLIC "-//W3C//DTD SVG 20010904//EN"
 "http://www.w3.org/TR/2001/REC-SVG-20010904/DTD/svg10.dtd">
<svg version="1.0" xmlns="http://www.w3.org/2000/svg"
 width="535.000000pt" height="535.000000pt" viewBox="0 0 535.000000 535.000000"
 preserveAspectRatio="xMidYMid meet">
<metadata>
Created by potrace 1.14, written by Peter Selinger 2001-2017
</metadata>
<g transform="translate(0.000000,535.000000) scale(0.100000,-0.100000)"
fill="#000000" stroke="none">
<path d="M2861 4746 c-2 -65 6 -72 91 -80 218 -22 510 -121 726 -248 443 -260
789 -697 932 -1177 29 -98 31 -107 35 -171 3 -30 10 -75 18 -100 7 -25 12 -70
10 -100 -3 -72 -4 -220 -2 -295 2 -54 -1 -116 -16 -300 -3 -33 -12 -82 -20
-110 -9 -27 -18 -63 -21 -80 -3 -16 -9 -34 -14 -40 -8 -10 -20 -52 -36 -123
-10 -49 -37 -118 -56 -144 -11 -16 -22 -40 -24 -55 -3 -15 -17 -43 -30 -61
-14 -18 -40 -65 -58 -105 -89 -194 -396 -507 -664 -676 -37 -24 -66 -34 -98
-35 -27 -2 -49 -8 -55 -17 -7 -12 -9 -12 -9 1 -1 11 -4 10 -15 -4 -8 -11 -15
-16 -15 -12 0 4 -13 -8 -30 -26 -16 -18 -30 -35 -30 -38 0 -6 -32 -20 -125
-55 -62 -23 -71 -24 -81 -10 -6 8 -18 13 -25 10 -8 -3 -52 -11 -98 -19 -68
-12 -89 -20 -105 -40 -22 -27 -37 -30 -186 -42 -47 -3 -86 -7 -88 -9 -2 -1
-22 2 -45 8 -23 5 -91 10 -152 11 -60 1 -115 5 -122 9 -6 4 -40 8 -75 8 -76 1
-104 11 -113 39 -5 15 -12 19 -23 15 -10 -4 -46 -13 -81 -20 -64 -14 -65 -14
-183 26 -127 42 -261 103 -373 170 -80 47 -145 89 -161 104 -6 6 -23 19 -38
30 -176 127 -403 383 -516 580 -35 60 -90 171 -89 180 0 3 5 19 11 37 5 18 11
43 13 55 3 20 1 21 -16 13 -13 -7 -19 -7 -19 0 0 5 5 10 12 10 6 0 8 3 5 6 -4
4 -12 2 -20 -4 -15 -13 -24 -1 -77 108 -44 89 -83 240 -107 410 -4 30 -7 150
-7 265 0 190 3 249 19 325 3 14 12 66 20 115 25 145 93 364 135 435 5 8 25 47
44 85 67 132 72 137 110 129 81 -15 166 53 166 133 0 24 -8 56 -19 74 -19 31
-19 31 4 58 13 14 33 37 45 51 48 56 110 118 171 171 57 50 92 79 220 181 31
24 66 53 96 78 7 5 17 10 23 10 5 0 10 5 10 11 0 5 5 7 10 4 6 -3 10 -1 10 4
0 6 -7 11 -15 11 -8 0 -15 -4 -15 -9 0 -5 -8 -12 -19 -16 -15 -4 -134 -87
-176 -122 -5 -5 -39 -31 -75 -58 -36 -27 -126 -109 -200 -182 l-135 -132 -55
5 c-47 5 -60 2 -90 -18 -66 -45 -83 -114 -47 -188 14 -27 13 -31 -21 -81 -124
-185 -243 -556 -277 -869 -14 -129 -4 -415 19 -545 2 -11 7 -38 11 -60 38
-212 145 -504 248 -675 117 -196 207 -312 356 -460 220 -219 459 -375 744
-489 94 -37 340 -106 417 -116 30 -4 64 -9 75 -11 52 -10 183 -18 295 -17 116
0 162 3 280 18 25 3 61 8 80 10 30 3 62 10 140 29 8 2 29 7 45 11 60 14 220
68 229 76 6 5 16 9 24 9 27 0 237 108 332 170 269 178 471 376 640 629 89 134
240 435 256 511 0 3 3 12 7 20 27 67 61 196 83 320 19 102 26 430 12 565 -28
273 -119 576 -243 809 -257 485 -668 844 -1182 1032 -142 52 -345 99 -474 110
l-66 6 -2 -56z"/>
<path d="M2585 4414 c0 -34 3 -66 8 -70 7 -7 11 17 8 44 -3 21 14 13 37 -18
13 -16 30 -30 39 -30 15 0 15 2 2 13 -8 6 -21 20 -28 30 -12 15 -11 19 4 31
20 15 13 56 -11 56 -11 0 -12 -4 -5 -19 8 -14 7 -22 -5 -32 -20 -16 -33 1 -27
35 3 15 0 23 -9 23 -10 0 -14 -16 -13 -63z"/>
<path d="M2740 4457 c-52 -26 -29 -127 29 -127 28 0 60 31 65 63 4 21 -1 35
-19 53 -27 27 -39 29 -75 11z m59 -11 c7 -8 11 -31 9 -52 -6 -71 -70 -73 -76
-2 -5 54 39 88 67 54z"/>
<path d="M2476 4452 c-3 -5 -3 -20 0 -33 3 -13 5 -39 5 -56 -1 -22 3 -33 12
-33 11 0 12 12 5 62 -9 65 -12 75 -22 60z"/>
<path d="M2510 4453 c8 -3 18 -11 22 -17 5 -7 8 -4 8 7 0 11 -7 17 -22 16 -16
0 -18 -2 -8 -6z"/>
<path d="M2874 4426 c0 -17 -2 -46 -4 -65 -3 -20 0 -36 6 -38 7 -2 9 8 6 26
-2 16 0 37 6 47 8 14 13 10 37 -30 31 -52 45 -58 45 -18 0 15 4 42 9 60 5 17
6 32 2 32 -5 0 -12 -19 -17 -42 l-9 -43 -27 46 c-35 59 -55 68 -54 25z"/>
<path d="M2386 4442 c-3 -5 1 -15 9 -22 16 -14 20 -3 6 19 -5 8 -11 9 -15 3z"/>
<path d="M2430 4440 c0 -5 7 -7 15 -4 8 4 15 8 15 10 0 2 -7 4 -15 4 -8 0 -15
-4 -15 -10z"/>
<path d="M2312 4427 c-21 -25 -21 -65 -1 -92 26 -32 69 -33 95 -2 19 22 19 22
-2 5 -27 -24 -61 -23 -74 1 -14 26 -13 74 2 89 8 8 8 12 1 12 -6 0 -15 -6 -21
-13z"/>
<path d="M2205 4419 l-41 -9 16 -65 c9 -39 20 -65 28 -65 13 0 11 13 -6 59 -4
10 2 13 25 9 26 -4 29 -2 25 19 -4 21 -6 22 -17 7 -16 -22 -45 -11 -45 17 0
18 5 21 30 17 20 -3 30 0 30 9 0 7 -1 13 -2 12 -2 -1 -21 -5 -43 -10z"/>
<path d="M3031 4375 c-15 -66 -15 -69 -4 -72 5 -2 16 26 25 62 11 49 12 65 3
65 -6 0 -17 -25 -24 -55z"/>
<path d="M3100 4380 c-26 -26 -23 -77 4 -96 30 -21 39 -17 16 6 -24 24 -19 66
12 93 17 14 17 17 4 17 -9 0 -25 -9 -36 -20z"/>
<path d="M3171 4388 c8 -7 20 -20 27 -27 10 -13 12 -12 12 8 0 12 -4 20 -9 16
-5 -3 -12 -1 -16 5 -3 5 -11 10 -18 10 -6 0 -5 -5 4 -12z"/>
<path d="M2040 4365 c-14 -8 -20 -14 -13 -15 13 0 45 -88 37 -101 -9 -15 19
-10 61 11 22 11 31 17 20 14 -11 -3 -27 -8 -36 -11 -11 -3 -21 9 -33 42 -10
25 -15 52 -12 60 6 18 7 18 -24 0z"/>
<path d="M3302 4344 c4 -3 -4 -29 -17 -57 -18 -38 -21 -53 -12 -59 8 -5 15 3
20 22 8 33 18 37 40 15 13 -13 16 -13 21 2 4 9 4 18 1 21 -3 3 -5 0 -5 -7 0
-9 -5 -9 -21 -1 -12 7 -18 17 -15 26 3 8 9 21 12 29 4 10 0 15 -12 15 -9 0
-15 -3 -12 -6z"/>
<path d="M1932 4321 c-29 -15 -31 -19 -19 -30 8 -6 21 -31 28 -55 l13 -44 43
16 c24 9 43 20 43 24 0 12 -8 10 -34 -8 -23 -14 -25 -14 -40 7 -17 25 -8 39
26 39 11 0 15 5 12 15 -5 13 -8 13 -21 0 -19 -20 -30 -19 -43 5 -8 15 -6 21
11 30 11 7 27 9 35 6 9 -3 12 -1 9 4 -9 14 -25 12 -63 -9z"/>
<path d="M2261 4313 c-16 -17 -11 -25 8 -14 7 5 12 13 10 19 -2 6 -10 4 -18
-5z"/>
<path d="M3367 4309 c6 -23 9 -24 16 -5 3 8 0 17 -7 19 -10 4 -12 -1 -9 -14z"/>
<path d="M3424 4292 c6 -10 -31 -94 -45 -103 -7 -4 -4 -9 5 -12 9 -4 15 -3 14
1 -4 11 24 72 33 72 4 0 13 -25 19 -55 6 -30 13 -55 16 -55 2 0 16 24 31 53
37 69 36 67 24 67 -5 0 -15 -16 -22 -35 -7 -19 -16 -35 -20 -35 -4 0 -13 25
-20 55 -8 35 -17 55 -26 55 -8 0 -12 -4 -9 -8z"/>
<path d="M1772 4247 c-19 -11 -30 -23 -25 -26 16 -12 54 -91 48 -101 -3 -6 6
-5 21 2 21 10 24 14 11 16 -9 2 -17 7 -17 12 0 5 -3 15 -6 24 -4 11 0 16 15
16 14 0 19 5 15 15 -5 13 -8 13 -21 -1 -12 -11 -18 -12 -29 -3 -23 19 -16 38
18 47 21 5 27 10 18 13 -8 3 -30 -3 -48 -14z"/>
<path d="M3346 4221 c-3 -5 -16 -7 -29 -5 -20 4 -21 4 -2 -5 28 -13 32 -13 39
4 6 16 1 20 -8 6z"/>
<path d="M3553 4200 c-40 -16 -41 -90 -1 -111 19 -10 19 -9 3 14 -20 31 -11
70 20 87 33 18 65 4 65 -28 1 -25 2 -25 12 -8 9 16 7 23 -12 38 -24 19 -52 22
-87 8z"/>
<path d="M1643 4170 c-59 -54 16 -149 83 -105 27 17 33 69 12 98 -21 28 -70
32 -95 7z m64 -12 c30 -33 37 -63 18 -82 -9 -9 -19 -16 -21 -16 -19 0 -48 26
-59 53 -12 28 -11 34 2 50 21 23 35 22 60 -5z"/>
<path d="M3692 4120 c-7 -15 -23 -39 -36 -53 -19 -20 -21 -28 -12 -36 9 -8 18
0 35 29 12 22 31 46 41 53 18 12 18 14 1 24 -14 9 -19 6 -29 -17z"/>
<path d="M3599 4104 c-21 -43 -1 -47 24 -5 13 22 14 30 4 34 -6 2 -19 -11 -28
-29z"/>
<path d="M2525 4098 c-78 -7 -126 -14 -222 -34 -12 -2 -63 -18 -115 -35 -422
-137 -757 -450 -921 -859 -36 -91 -81 -254 -92 -335 -11 -80 -14 -325 -5 -380
4 -27 11 -70 14 -95 14 -102 81 -301 141 -419 77 -153 236 -348 380 -467 174
-144 416 -259 656 -311 65 -14 128 -18 284 -18 173 0 214 3 304 23 331 74 598
231 831 488 40 44 132 181 179 266 44 81 76 126 104 148 19 15 24 29 26 77 1
32 7 78 12 103 6 25 12 69 13 97 2 29 8 58 14 65 6 7 13 49 16 92 4 44 8 82
11 84 2 2 -2 10 -9 17 -7 7 -14 41 -15 77 -6 209 -81 472 -189 665 -233 419
-687 714 -1152 748 -137 10 -170 11 -265 3z m899 -313 c-4 -8 -18 -15 -33 -15
-14 0 -41 -4 -58 -9 -20 -6 -35 -6 -38 0 -4 5 -5 9 -3 9 2 0 21 7 43 15 55 19
96 20 89 0z m-778 -283 c-4 -3 -14 2 -24 12 -16 18 -16 18 6 6 13 -6 21 -14
18 -18z m-763 -345 c8 4 7 1 -1 -9 -9 -11 -9 -18 -2 -21 6 -3 5 -4 -2 -3 -7 1
-14 13 -15 27 -1 13 0 18 3 11 3 -6 11 -9 17 -5z"/>
<path d="M3765 4098 c3 -7 -12 -32 -34 -55 -31 -35 -36 -45 -25 -54 11 -9 14
-8 14 4 0 9 11 29 25 44 l24 28 1 -65 1 -65 44 50 c24 27 41 53 38 58 -3 5
-17 -9 -32 -30 l-26 -38 -5 64 c-3 39 -10 66 -18 69 -7 2 -10 -2 -7 -10z"/>
<path d="M1510 4080 c-9 -6 -10 -10 -3 -10 6 0 14 -8 16 -17 3 -11 5 -7 6 10
1 30 1 30 -19 17z"/>
<path d="M1441 4026 c-10 -12 -5 -15 30 -21 44 -8 84 -39 73 -56 -4 -7 1 -7
15 0 l21 12 -23 22 c-13 12 -27 29 -30 37 -3 8 -6 10 -6 4 -1 -13 -51 -6 -51
7 0 14 -16 11 -29 -5z"/>
<path d="M3890 4004 c0 -19 -72 -94 -84 -87 -6 3 5 -10 24 -30 36 -37 54 -45
65 -27 3 5 0 7 -8 5 -7 -3 -21 3 -32 14 -14 17 -15 23 -5 36 23 28 47 16 40
-20 -1 -5 8 -1 19 9 24 22 26 27 8 20 -24 -9 -39 20 -22 42 15 19 15 18 35 -5
11 -12 17 -28 13 -35 -3 -6 0 -6 8 2 11 10 7 19 -24 50 -20 20 -37 32 -37 26z"/>
<path d="M1369 3956 c-25 -24 -34 -38 -28 -47 7 -11 9 -10 9 3 0 35 23 29 64
-17 29 -31 45 -42 48 -34 3 8 -12 31 -34 53 -47 47 -48 65 -5 57 5 -1 6 3 2 9
-10 15 -17 12 -56 -24z"/>
<path d="M3985 3909 c6 -16 -72 -87 -90 -81 -9 3 0 -8 51 -64 6 -7 16 -9 23
-4 9 5 7 9 -8 13 -28 7 -37 35 -18 54 17 17 37 10 37 -13 0 -19 14 -18 31 3
10 12 11 15 1 9 -7 -4 -20 -2 -28 5 -13 10 -12 14 2 30 10 11 21 19 25 19 8 0
24 -40 21 -53 -1 -5 2 -6 8 -2 17 11 11 25 -25 63 -20 20 -33 30 -30 21z"/>
<path d="M1265 3849 c-11 -12 -15 -19 -8 -15 8 4 30 -11 58 -37 l45 -44 30 34
c17 19 27 39 23 46 -4 7 -10 1 -16 -16 -5 -15 -16 -27 -25 -27 -18 1 -77 49
-84 70 -2 7 -11 3 -23 -11z"/>
<path d="M1218 3793 c-6 -8 -7 -13 -2 -11 20 6 84 -47 84 -69 0 -40 -30 -44
-77 -11 -25 17 -41 34 -37 41 3 7 -1 4 -10 -7 -14 -17 -12 -21 27 -47 48 -33
69 -36 91 -13 26 26 19 56 -24 95 -33 31 -42 34 -52 22z"/>
<path d="M4080 3805 c0 -6 -23 -25 -50 -44 -34 -23 -47 -38 -40 -45 6 -6 16
-3 30 9 27 25 34 14 20 -30 -9 -27 -9 -40 -1 -48 8 -8 11 -4 11 14 0 29 17 49
41 49 30 0 40 23 23 56 -18 34 -34 53 -34 39z m25 -65 c-8 -13 -42 -13 -50 -1
-3 5 5 17 17 25 20 14 23 14 31 1 4 -8 5 -20 2 -25z"/>
<path d="M4164 3691 c7 -11 -83 -73 -95 -65 -5 3 -4 -7 3 -22 8 -17 14 -22 16
-13 4 19 89 72 103 64 6 -4 3 4 -6 19 -16 23 -34 39 -21 17z"/>
<path d="M1118 3655 c-25 -33 -22 -67 5 -93 30 -29 71 -28 91 0 9 12 16 27 16
32 0 6 -7 0 -16 -12 -20 -29 -55 -28 -83 2 -27 29 -24 56 7 72 12 6 19 14 15
17 -10 11 -17 8 -35 -18z"/>
<path d="M4206 3627 c6 -15 -81 -71 -96 -62 -5 3 -6 -4 -3 -15 4 -17 8 -18 17
-7 17 21 66 49 66 38 0 -6 -9 -33 -20 -61 -16 -40 -17 -50 -6 -50 8 0 16 3 18
8 5 11 64 42 82 42 9 0 13 6 10 15 -5 12 -12 10 -42 -10 -20 -13 -37 -23 -39
-21 -2 1 4 22 12 46 17 49 19 76 5 85 -5 3 -7 0 -4 -8z"/>
<path d="M1030 3503 c0 -4 11 -21 25 -38 13 -16 32 -41 43 -54 16 -21 19 -22
25 -7 4 9 3 15 -2 12 -5 -3 -14 1 -21 8 -18 23 5 59 35 53 14 -2 26 1 29 9 4
10 -4 14 -27 14 -18 1 -49 3 -69 6 -21 3 -38 2 -38 -3z m63 -19 c3 -3 3 -12 0
-20 -4 -11 -9 -12 -19 -3 -8 6 -14 15 -14 20 0 10 24 12 33 3z"/>
<path d="M4206 3448 c-21 -30 -20 -61 2 -88 14 -18 23 -21 43 -14 13 4 27 7
32 6 9 -3 9 10 -2 26 -6 10 -10 10 -21 -3 -17 -21 -47 -19 -55 4 -11 34 21 68
72 77 22 4 46 -33 39 -61 -4 -17 -3 -24 4 -20 15 9 12 47 -6 73 -11 16 -25 22
-54 22 -29 0 -43 -6 -54 -22z"/>
<path d="M986 3423 c-4 -9 -4 -18 -1 -21 3 -3 5 0 5 6 0 6 8 12 18 14 15 3 16
4 0 10 -10 4 -19 1 -22 -9z"/>
<path d="M1027 3380 c-4 -15 -10 -18 -24 -13 -10 3 -21 11 -24 16 -3 5 -9 2
-12 -6 -4 -10 12 -22 53 -40 47 -20 60 -22 64 -11 3 9 -1 14 -12 14 -9 0 -24
5 -32 10 -12 7 -12 12 -2 22 14 14 16 28 3 28 -5 0 -11 -9 -14 -20z"/>
<path d="M967 3142 c-44 -45 -47 -51 -37 -77 6 -15 13 -25 17 -21 3 3 12 1 19
-5 10 -8 24 0 58 32 25 23 46 47 46 53 0 7 -13 24 -28 39 l-28 27 -47 -48z
m63 3 c20 -24 6 -28 -15 -5 -10 11 -13 20 -8 20 6 0 16 -7 23 -15z m-5 -43
c-6 -7 -35 18 -35 31 0 5 9 2 20 -8 11 -10 18 -20 15 -23z m-20 -20 c-2 -3
-11 1 -20 8 -18 15 -20 -1 -3 -18 8 -8 8 -12 1 -12 -6 0 -16 7 -23 15 -9 11
-9 17 2 29 11 12 15 12 31 -2 9 -8 15 -17 12 -20z"/>
<path d="M4250 3160 l-31 -29 47 -51 c35 -37 50 -47 59 -40 7 6 18 9 25 8 7
-2 14 10 17 26 3 23 -4 36 -40 72 l-45 44 -32 -30z m70 -55 c-7 -9 -15 -13
-17 -11 -7 7 7 26 19 26 6 0 6 -6 -2 -15z m30 -8 c0 -2 -10 -12 -21 -23 -22
-19 -22 -19 -10 4 10 18 31 31 31 19z"/>
<path d="M830 3065 c-13 -14 -18 -25 -11 -25 17 0 54 37 43 44 -5 3 -20 -6
-32 -19z"/>
<path d="M4439 3085 c-1 -6 -1 -13 -1 -16 1 -4 -7 -5 -18 -2 -13 3 -30 -5 -50
-26 l-32 -31 30 -30 c17 -16 33 -30 37 -30 14 0 66 63 61 75 -3 8 0 16 7 18 8
3 4 13 -10 28 -13 13 -24 19 -24 14z"/>
<path d="M852 3047 c-29 -31 -28 -38 11 -73 l32 -30 31 33 31 32 -31 30 c-38
37 -46 38 -74 8z"/>
<path d="M4517 3009 c-5 -20 -15 -28 -41 -33 -26 -5 -36 -13 -41 -34 -7 -27 3
-38 100 -120 6 -5 18 10 31 37 24 48 23 49 -17 96 -10 11 -19 34 -21 50 l-3
30 -8 -26z"/>
<path d="M953 2988 c-12 -6 -30 -27 -39 -46 -15 -31 -15 -39 -3 -61 8 -13 20
-26 27 -27 7 -1 8 0 2 3 -19 9 -10 33 26 73 52 58 100 51 58 -8 -16 -23 -17
-23 -38 -5 -21 18 -21 18 -3 -3 18 -21 18 -22 -5 -38 -12 -9 -18 -16 -14 -16
5 0 18 7 28 17 16 14 18 14 18 1 0 -9 6 -18 14 -21 20 -8 29 20 10 31 -13 7
-13 12 3 41 18 32 18 32 -6 52 -26 21 -45 23 -78 7z"/>
<path d="M4270 2988 l-25 -10 28 -9 c31 -8 67 -41 86 -76 15 -29 14 -33 -6
-34 -13 0 -14 -2 -4 -6 19 -8 41 24 41 60 0 18 -10 39 -29 58 -31 31 -50 34
-91 17z"/>
<path d="M769 2943 c-52 -56 -53 -61 -27 -88 13 -14 26 -25 30 -25 3 0 28 20
54 44 36 34 45 48 37 58 -6 7 -12 18 -12 23 -1 6 -5 10 -10 10 -5 0 -13 3 -17
8 -12 12 -18 9 -55 -30z m61 -8 c20 -24 6 -28 -15 -5 -10 11 -13 20 -8 20 6 0
16 -7 23 -15z m-20 -20 c7 -8 8 -15 2 -15 -5 0 -15 7 -22 15 -7 8 -8 15 -2 15
5 0 15 -7 22 -15z m-20 -20 c20 -24 6 -28 -15 -5 -10 11 -13 20 -8 20 6 0 16
-7 23 -15z m-20 -20 c20 -24 6 -28 -15 -5 -10 11 -13 20 -8 20 6 0 16 -7 23
-15z"/>
<path d="M4260 2920 c6 -11 13 -20 16 -20 2 0 0 9 -6 20 -6 11 -13 20 -16 20
-2 0 0 -9 6 -20z"/>
<path d="M4290 2905 c-7 -8 -19 -15 -26 -15 -16 0 -19 -26 -4 -35 6 -3 13 1
16 10 4 9 13 14 21 11 8 -3 11 -1 8 5 -4 5 -1 16 5 24 7 9 8 15 2 15 -5 0 -15
-7 -22 -15z"/>
<path d="M849 2706 c-28 -13 -36 -53 -17 -78 16 -21 128 -34 128 -15 0 8 -16
11 -50 9 -57 -4 -83 10 -78 42 3 19 10 21 67 22 50 1 65 5 67 17 1 12 -3 14
-19 8 -12 -5 -34 -5 -48 -1 -16 5 -36 3 -50 -4z"/>
<path d="M4415 2713 c-40 -6 -74 -44 -68 -77 3 -14 9 -23 14 -20 5 2 20 -1 34
-9 23 -11 24 -15 12 -26 -9 -7 -24 -13 -35 -14 -18 -1 -20 -9 -21 -84 -1 -72
1 -83 16 -83 13 0 14 3 5 12 -7 7 -12 18 -12 25 0 16 112 11 118 -6 6 -17 19
-13 25 8 7 28 -7 45 -29 34 -18 -9 -103 -7 -112 2 -3 2 -1 12 3 22 5 10 7 23
7 29 -1 6 16 21 39 33 32 18 46 21 63 13 21 -9 23 -7 23 19 0 21 -4 26 -11 19
-17 -17 -55 -11 -98 16 l-42 27 27 22 c30 23 120 34 132 15 3 -5 12 -10 18
-10 7 1 1 10 -12 20 -23 20 -36 21 -96 13z"/>
<path d="M943 2575 c-7 -8 -32 -12 -67 -11 -67 3 -76 -12 -10 -16 l46 -3 -41
-30 c-55 -41 -59 -55 -16 -53 25 1 32 4 25 13 -7 8 2 20 30 41 22 16 42 37 46
47 8 24 2 29 -13 12z"/>
<path d="M4490 2520 c0 -16 4 -30 8 -30 5 0 7 14 4 30 -2 17 -6 30 -8 30 -2 0
-4 -13 -4 -30z"/>
<path d="M900 2470 c0 -5 5 -10 11 -10 5 0 7 5 4 10 -3 6 -8 10 -11 10 -2 0
-4 -4 -4 -10z"/>
<path d="M930 2474 c0 -3 7 -12 15 -20 13 -14 15 -13 15 5 0 12 -6 21 -15 21
-8 0 -15 -3 -15 -6z"/>
<path d="M883 2423 c-41 -3 -63 -8 -63 -16 0 -9 20 -11 70 -9 52 3 70 7 70 18
0 8 -3 13 -7 12 -5 -1 -36 -3 -70 -5z"/>
<path d="M4341 2362 c0 -15 3 -22 5 -15 5 11 28 11 97 -1 10 -1 23 -9 28 -17
7 -12 9 -12 10 1 0 8 2 22 4 31 2 14 -2 15 -24 10 -14 -4 -47 -2 -73 5 l-48
12 1 -26z"/>
<path d="M891 2330 l-63 -38 59 -16 c32 -9 66 -21 76 -26 14 -8 17 -6 17 9 0
14 -5 18 -18 14 -10 -2 -34 2 -52 9 l-34 14 38 22 c21 12 42 20 47 17 5 -4 9
1 9 9 0 27 -15 25 -79 -14z"/>
<path d="M4334 2323 c3 -3 1 -15 -5 -26 -11 -19 -11 -19 15 -1 31 23 32 29 5
31 -12 1 -19 -1 -15 -4z"/>
<path d="M4448 2303 c6 -2 12 -12 12 -22 0 -49 -63 -73 -105 -40 -21 17 -25
18 -25 5 0 -9 11 -23 25 -32 40 -26 125 -3 103 29 -1 1 4 11 10 23 12 22 0 45
-22 43 -6 0 -5 -3 2 -6z"/>
<path d="M952 2219 c-12 -5 -41 -10 -63 -11 l-41 -3 7 -39 c7 -48 12 -56 33
-56 14 0 14 1 0 13 -18 14 -34 57 -21 58 4 0 18 2 31 5 20 4 28 -8 23 -38 0
-5 9 -8 21 -8 21 0 21 1 3 14 -23 16 -14 46 14 46 22 0 35 -28 25 -56 -5 -15
-4 -16 5 -8 8 8 10 24 6 48 -9 43 -13 46 -43 35z"/>
<path d="M4265 2113 c-4 -21 -13 -51 -20 -68 -10 -21 -11 -31 -3 -37 8 -4 9
-10 1 -20 -16 -20 -23 -57 -9 -52 18 7 111 -33 111 -47 0 -16 -76 -13 -86 3
-8 13 -51 6 -56 -8 -2 -7 6 -10 22 -7 23 5 31 -3 26 -30 -1 -4 8 -3 19 3 30
16 54 -4 39 -32 -7 -14 -16 -17 -32 -12 -12 4 -25 11 -28 16 -3 5 -10 9 -15 9
-21 -2 -44 11 -38 22 3 7 -4 1 -15 -13 -11 -14 -21 -29 -21 -35 0 -5 4 -4 9 4
8 12 18 10 65 -9 61 -25 69 -42 36 -78 -26 -28 -58 -15 -85 34 -19 35 -29 41
-40 24 -3 -5 0 -10 8 -10 7 0 19 -12 26 -26 12 -26 11 -26 -29 -22 -35 3 -50
-5 -50 -26 0 -2 24 -1 53 1 34 3 58 0 70 -9 18 -13 17 -15 -3 -41 -12 -15 -26
-25 -31 -22 -5 4 -9 -4 -9 -17 0 -47 -32 -63 -79 -41 -39 19 -52 58 -25 78 10
7 22 11 26 9 10 -6 11 10 1 19 -3 4 -17 -3 -30 -15 -41 -38 -26 -99 30 -121
28 -12 35 -11 64 7 19 12 37 35 44 56 16 46 38 78 99 136 27 27 50 55 50 62 0
7 4 20 9 30 5 9 14 53 20 97 6 44 14 90 17 103 6 19 3 22 -25 22 -41 0 -40 17
2 25 22 4 33 12 34 25 1 17 -1 17 -25 4 -25 -13 -28 -12 -41 6 -7 11 -22 20
-32 20 -11 0 -19 5 -19 10 0 6 -7 10 -15 10 -9 0 -16 -14 -20 -37z m81 -24
c10 -17 -12 -32 -35 -24 -29 9 -27 35 3 35 14 0 28 -5 32 -11z m-8 -54 c34
-10 52 -21 52 -31 0 -9 -6 -14 -13 -11 -10 4 -12 -3 -9 -24 5 -33 -17 -47 -50
-32 l-22 9 21 21 c18 18 19 22 6 27 -26 10 -36 7 -25 -7 15 -17 -1 -40 -24
-35 -24 4 -29 31 -10 51 11 11 12 17 4 19 -12 4 -3 28 11 28 4 0 31 -7 59 -15z"/>
<path d="M998 2119 c-6 -15 -103 -43 -117 -34 -5 2 -6 -7 -3 -20 4 -21 6 -22
19 -10 16 16 43 20 43 6 0 -4 -9 -20 -20 -34 -22 -27 -26 -47 -10 -47 6 0 10
5 10 10 0 6 8 18 18 28 14 14 22 16 35 8 20 -13 49 1 52 25 4 24 -21 85 -27
68z m12 -49 c0 -27 -28 -37 -48 -17 -14 15 -14 17 9 26 35 14 39 13 39 -9z"/>
<path d="M4516 2103 c-6 -14 -5 -15 5 -6 7 7 10 15 7 18 -3 3 -9 -2 -12 -12z"/>
<path d="M1001 1977 c-6 -8 -14 -28 -17 -45 -5 -22 -12 -32 -25 -32 -22 0 -27
38 -8 57 9 9 6 10 -10 6 -23 -6 -39 -23 -21 -23 6 0 9 -3 7 -7 -3 -5 -1 -18 4
-30 18 -48 79 -20 79 37 0 25 28 39 40 19 5 -7 4 -22 -2 -32 -9 -17 -8 -19 7
-14 9 4 18 7 21 7 2 0 -1 12 -7 27 -16 42 -46 55 -68 30z"/>
<path d="M1080 1893 c0 -14 -98 -56 -110 -48 -15 9 -12 -9 6 -31 8 -10 13 -14
10 -8 -7 14 90 58 110 50 12 -5 12 -2 3 17 -15 29 -19 33 -19 20z"/>
<path d="M1103 1829 c9 -5 17 -15 17 -22 0 -15 -97 -60 -110 -52 -6 3 -7 -1
-4 -9 8 -21 16 -20 76 10 41 21 52 23 59 12 5 -7 7 -19 4 -26 -3 -7 0 -10 5
-7 15 9 12 -10 -7 -50 -15 -31 -45 -53 -66 -47 -4 1 -2 -6 5 -17 11 -18 12
-18 32 0 11 11 31 20 45 20 17 1 20 3 9 6 -15 4 -16 8 -6 26 6 12 15 25 20 28
5 3 -4 28 -19 55 -16 27 -32 57 -36 67 -3 9 -14 17 -24 17 -17 -1 -17 -1 0
-11z"/>
<path d="M1202 1651 c-10 -6 -7 -10 11 -13 18 -4 24 -1 20 9 -6 15 -13 16 -31
4z"/>
<path d="M3895 1630 c3 -5 8 -10 11 -10 2 0 4 5 4 10 0 6 -5 10 -11 10 -5 0
-7 -4 -4 -10z"/>
<path d="M1212 1540 c-28 -26 -29 -100 -1 -100 5 0 4 9 -3 20 -15 23 -6 43 34
73 46 34 94 -2 64 -48 -8 -12 -29 -29 -48 -39 l-33 -17 40 5 c45 6 65 27 65
67 0 54 -76 78 -118 39z"/>
<path d="M3970 1526 c-13 -13 -13 -29 0 -21 11 7 60 -23 60 -36 0 -5 -26 -9
-59 -9 -38 0 -63 -5 -70 -14 -10 -12 -9 -14 6 -10 23 6 106 -63 96 -79 -3 -7
3 -3 15 7 25 22 27 28 10 24 -15 -3 -68 30 -68 43 0 4 27 9 61 11 l60 3 -50
46 c-34 30 -54 42 -61 35z"/>
<path d="M1360 1472 c0 -16 -80 -88 -93 -84 -6 2 -4 -4 3 -13 12 -14 15 -14
36 6 22 21 62 20 49 -1 -3 -5 -2 -10 4 -10 17 0 22 18 6 24 -17 6 -20 32 -5
41 19 12 50 -6 50 -28 0 -16 3 -18 12 -9 10 10 4 20 -25 50 -20 20 -37 31 -37
24z"/>
<path d="M3846 1391 c-29 -32 -28 -61 3 -92 33 -33 75 -32 103 2 49 57 -55
146 -106 90z m71 -17 c63 -48 23 -113 -42 -70 -40 26 -49 52 -25 76 25 25 26
25 67 -6z"/>
<path d="M1454 1348 c-4 -6 -3 -8 4 -5 11 8 42 -1 42 -12 0 -14 -79 -89 -86
-83 -5 4 -2 -1 5 -10 16 -21 31 -23 31 -5 0 7 16 28 35 47 29 28 37 31 49 20
9 -7 13 -17 9 -24 -3 -6 0 -5 8 2 12 12 8 19 -26 48 -42 36 -59 41 -71 22z"/>
<path d="M3735 1295 c-17 -14 -25 -25 -18 -23 11 3 82 -69 83 -83 0 -4 -6 -12
-14 -18 -23 -19 -74 5 -78 37 -4 38 -43 41 -83 6 -16 -14 -25 -23 -19 -20 15
8 87 -80 78 -95 -3 -6 5 -3 20 6 28 19 34 27 14 20 -19 -6 -83 86 -67 95 21
14 41 -1 36 -26 -4 -20 1 -25 32 -34 50 -14 49 -14 88 20 18 17 27 30 20 30
-8 0 -21 7 -28 16 -11 14 -11 18 5 29 10 8 16 23 14 37 -5 34 -46 36 -83 3z
m63 -32 c-10 -12 -15 -11 -32 7 -18 18 -19 22 -6 30 22 13 54 -18 38 -37z"/>
<path d="M1570 1278 c0 -8 -13 -30 -30 -48 -16 -18 -30 -38 -30 -42 0 -5 -4
-6 -10 -3 -5 3 -10 4 -10 1 0 -8 73 -56 85 -56 5 0 -5 9 -24 21 l-34 20 21 21
c17 18 24 19 36 9 9 -8 13 -17 10 -22 -3 -5 -1 -9 3 -9 5 0 14 9 20 19 10 16
9 18 -7 14 -26 -7 -38 24 -17 44 13 13 19 14 31 3 9 -7 16 -20 16 -28 0 -12 3
-13 12 -4 6 6 10 13 7 15 -54 43 -79 58 -79 45z"/>
<path d="M1646 1179 c-26 -20 -35 -61 -18 -85 8 -12 46 -34 59 -34 4 1 -4 8
-19 16 -36 19 -37 56 -3 90 40 40 27 49 -19 13z"/>
<path d="M1733 1172 c10 -10 17 -25 17 -33 0 -12 2 -12 9 0 7 11 3 20 -11 33
-27 23 -36 23 -15 0z"/>
<path d="M3530 1144 c0 -8 14 -20 32 -26 29 -10 30 -12 12 -25 -16 -12 -19
-11 -26 4 -4 10 -6 -5 -5 -33 2 -46 4 -51 20 -43 9 6 17 12 17 15 0 3 -4 3 -9
0 -5 -3 -11 3 -14 14 -9 34 40 52 66 26 11 -12 18 -12 28 -3 8 7 12 11 10 10
-2 -1 -29 15 -60 37 -63 44 -71 47 -71 24z"/>
<path d="M1783 1143 c4 -3 -7 -30 -23 -59 -20 -35 -27 -55 -20 -59 13 -8 12
-9 28 29 10 22 16 26 24 18 7 -7 16 -12 22 -12 5 0 2 6 -8 13 -18 13 -18 15
-2 39 15 23 15 26 1 32 -21 8 -30 8 -22 -1z"/>
<path d="M3444 1114 c-10 -8 -14 -13 -8 -10 6 3 18 -10 27 -29 19 -41 16 -42
-51 -14 -40 17 -54 19 -69 9 -16 -10 -16 -11 -1 -6 14 4 24 -7 43 -45 14 -27
23 -54 20 -58 -3 -5 4 -7 16 -4 13 4 17 8 9 13 -15 9 -42 61 -35 68 2 3 28 -5
56 -17 29 -12 54 -19 56 -17 2 2 -8 27 -22 55 -15 27 -24 55 -20 61 9 14 2 13
-21 -6z"/>
<path d="M1860 1090 c0 -11 -7 -23 -15 -26 -8 -4 -15 -13 -15 -22 0 -8 -7 -23
-15 -32 -13 -14 -13 -19 -2 -23 8 -3 24 15 42 49 16 30 34 54 40 54 11 0 -15
20 -27 20 -5 0 -8 -9 -8 -20z"/>
<path d="M1914 1072 c3 -5 -6 -32 -19 -60 -13 -29 -20 -52 -16 -52 4 0 16 19
25 43 l18 42 14 -30 c7 -16 13 -39 14 -50 1 -28 16 -50 24 -36 4 6 5 11 2 11
-3 0 8 22 24 50 16 27 25 52 21 55 -5 3 -17 -14 -26 -38 l-17 -42 -14 30 c-7
17 -15 42 -19 58 -3 15 -12 27 -21 27 -8 0 -13 -4 -10 -8z"/>
<path d="M3264 1010 c-1 -26 1 -29 13 -18 11 9 16 9 23 -2 10 -16 -13 -35 -29
-26 -5 3 -11 -12 -13 -33 -2 -25 0 -37 8 -34 6 2 9 14 7 27 -3 16 2 25 19 33
27 12 63 -1 52 -19 -5 -8 -1 -9 10 -5 10 4 23 7 29 7 6 0 1 7 -12 17 -13 9
-39 31 -58 50 -19 18 -38 33 -41 33 -4 0 -8 -14 -8 -30z"/>
<path d="M2063 1010 c-23 -9 -43 -39 -43 -63 0 -8 9 -25 21 -38 17 -20 19 -21
11 -4 -9 22 -9 27 2 67 5 16 19 31 34 37 15 5 20 9 12 10 -8 0 -25 -4 -37 -9z"/>
<path d="M3148 1003 c-30 -9 -48 -20 -48 -29 0 -14 2 -13 16 0 8 9 19 16 24
16 13 0 43 -98 34 -111 -5 -9 -2 -10 10 -6 10 4 22 7 26 7 5 0 3 12 -5 28 -38
78 -40 83 -25 92 7 4 20 6 28 2 10 -3 13 -1 8 6 -8 14 -7 14 -68 -5z"/>
<path d="M2130 995 c8 -9 10 -28 6 -51 -6 -27 -15 -39 -39 -50 l-32 -15 30 6
c17 4 38 14 48 22 21 20 22 66 1 87 -20 20 -30 21 -14 1z"/>
<path d="M2193 956 c-3 -42 -7 -59 -16 -73 -10 -16 0 -33 19 -33 8 0 12 5 9
10 -10 16 5 88 21 104 11 12 10 14 -9 18 -18 4 -22 -1 -24 -26z"/>
<path d="M3035 928 c-4 -29 -7 -55 -7 -58 0 -3 -4 -13 -10 -24 -8 -14 -7 -17
4 -14 7 3 14 14 16 25 4 25 51 41 63 22 4 -7 5 -17 2 -23 -4 -5 1 -7 11 -3 10
4 22 7 26 7 5 0 -1 10 -13 23 -12 12 -36 39 -54 60 l-31 38 -7 -53z m34 -12
c9 -11 8 -15 -5 -20 -22 -9 -23 -8 -21 14 2 23 10 25 26 6z"/>
<path d="M2316 936 c-31 -28 -34 -68 -6 -96 25 -25 60 -26 91 -1 42 33 35 87
-15 113 -21 11 -21 11 0 -13 22 -25 23 -71 2 -96 -16 -20 -52 -15 -66 8 -16
25 0 83 26 99 9 5 12 10 5 10 -7 0 -23 -11 -37 -24z"/>
<path d="M2958 952 c10 -7 10 -14 -1 -35 l-14 -27 -22 23 c-11 13 -18 27 -14
30 3 4 -3 7 -15 7 -30 0 -28 -11 8 -45 19 -19 30 -39 30 -57 0 -22 5 -28 21
-28 16 0 19 3 11 13 -13 16 -7 63 12 93 21 31 20 34 -6 34 -16 0 -19 -3 -10
-8z"/>
<path d="M2815 917 c-21 -39 -15 -97 12 -118 15 -12 16 -12 9 6 -16 39 -19
104 -6 120 7 9 11 18 8 20 -3 3 -13 -10 -23 -28z"/>
<path d="M2472 920 c-13 -12 -22 -33 -22 -49 0 -31 31 -66 52 -58 10 4 10 6 0
6 -36 2 -31 104 6 114 14 4 14 5 1 6 -8 0 -25 -8 -37 -19z"/>
<path d="M2566 932 c-2 -4 -1 -14 5 -22 7 -12 9 -10 9 8 0 23 -5 28 -14 14z"/>
<path d="M2610 905 c10 -11 26 -33 34 -49 19 -37 6 -56 -37 -56 -17 0 -27 -3
-23 -7 10 -10 126 -11 126 -2 0 5 -7 12 -16 17 -23 13 -20 55 5 91 16 22 18
31 9 31 -8 0 -19 -15 -26 -32 l-13 -33 -19 25 c-10 13 -16 28 -14 32 3 4 -6 7
-20 6 -25 -2 -25 -3 -6 -23z"/>
<path d="M2545 845 c0 -21 5 -35 13 -35 6 0 12 7 12 15 0 25 1 29 12 43 8 9 5
12 -13 12 -21 0 -24 -5 -24 -35z"/>
<path d="M2265 861 c-6 -5 -19 -11 -30 -14 -19 -4 -19 -5 1 -6 12 0 27 6 34
14 14 16 10 20 -5 6z"/>
</g>
</svg>
